<!DOCTYPE svg PUBLIC "-//W3C//DTD SVG 1.1//EN" "http://www.w3.org/Graphics/SVG/1.1/DTD/svg11.dtd">
<!-- Uploaded to: SVG Repo, www.svgrepo.com, Transformed by: SVG Repo Mixer Tools -->
<svg fill="#332e2e" version="1.1" id="Layer_1" xmlns="http://www.w3.org/2000/svg" xmlns:xlink="http://www.w3.org/1999/xlink" width="800px" height="800px" viewBox="-21.2 -21.2 254.40 254.40" enable-background="new 0 0 212 256" xml:space="preserve" transform="rotate(0)" stroke="#332e2e" stroke-width="0.00212">
<g id="SVGRepo_bgCarrier" stroke-width="0" transform="translate(0,0), scale(1)">
<path transform="translate(-21.2, -21.2), scale(15.899999999999999)" fill="#8861b9" d="M9.166.33a2.25 2.25 0 00-2.332 0l-5.25 3.182A2.25 2.25 0 00.5 5.436v5.128a2.25 2.25 0 001.084 1.924l5.25 3.182a2.25 2.25 0 002.332 0l5.25-3.182a2.25 2.25 0 001.084-1.924V5.436a2.25 2.25 0 00-1.084-1.924L9.166.33z" strokewidth="0"/>
</g>
<g id="SVGRepo_tracerCarrier" stroke-linecap="round" stroke-linejoin="round" stroke="#a279d0" stroke-width="10.175999999999998"> <path d="M207.342,44.894l-20.386-18.319c-3.622-3.278-8.298-4.912-13.171-4.912h-1.811c-0.097,0-12.463-10.865-21.355-18.633 c-2.676-2.338-6.857-0.435-6.857,3.119v20.909c0,0.02-15.75,22.178-15.75,22.178c-13.781,5.906-21.656,12.797-29.137,23.645 c-21.942-1.585-47.299,11.655-64.24,35.841c-16.274,23.23-20.757,51.718-13.245,70.584c-4.278,1.687-8.174,4.327-11.335,7.779 c-5.768,6.299-8.644,14.816-7.889,23.367c1.376,15.58,14.959,27.783,30.925,27.783l84.123,0.016c4.342,0,7.875,3.533,7.875,7.875 c0,4.349,3.526,7.875,7.875,7.875s7.875-3.526,7.875-7.875c0-12.284-9.424-22.409-21.422-23.523l-0.215-0.118H33.09 c-7.879,0-14.572-5.894-15.236-13.418c-0.373-4.223,0.982-8.253,3.815-11.347c2.374-2.592,5.478-4.194,8.885-4.653 c9.773,10.041,21.496,13.993,23.077,13.993l50.776-0.282c4.344-0.024,7.853-3.553,7.853-7.897c0-4.362-3.536-7.897-7.897-7.897 H84.699c0,0,10.669-9.069,15.65-14.204c0.058-0.06,0.102-0.118,0.154-0.177c3.411-3.353,5.916-7.625,7.081-12.428 c1.126-5.222,0.815-11.366-2.029-17.861c-3.296-6.559-9.274-11.534-16.498-13.485c-2.692-0.602-20.108-0.906-20.108-0.906 c-2.174,0-3.937-1.763-3.937-3.937s1.763-3.937,3.937-3.937h12.797v0.013c0.164-0.003-0.165-0.013,0-0.013 c15.591,0,29.246,10.566,33.219,24.91c0.011,0.033,0.027,0.071,0.038,0.104l14.715,53.337c0.707,2.561,3.037,4.335,5.694,4.335 h16.224c4.349,0,7.875-3.526,7.875-7.875c0-4.349-3.526-7.875-7.875-7.875h-7.875l-0.01-47.181 c19.904-9.941,31.51-25.347,31.51-55.193c0-12.157,0-23.625,0-23.625h24.609c3.622,0,7.599-2.353,8.515-5.867l1.309-6.29 C210.442,49.953,209.546,46.902,207.342,44.894z"/> </g>
<g id="SVGRepo_iconCarrier"> <path d="M207.342,44.894l-20.386-18.319c-3.622-3.278-8.298-4.912-13.171-4.912h-1.811c-0.097,0-12.463-10.865-21.355-18.633 c-2.676-2.338-6.857-0.435-6.857,3.119v20.909c0,0.02-15.75,22.178-15.75,22.178c-13.781,5.906-21.656,12.797-29.137,23.645 c-21.942-1.585-47.299,11.655-64.24,35.841c-16.274,23.23-20.757,51.718-13.245,70.584c-4.278,1.687-8.174,4.327-11.335,7.779 c-5.768,6.299-8.644,14.816-7.889,23.367c1.376,15.58,14.959,27.783,30.925,27.783l84.123,0.016c4.342,0,7.875,3.533,7.875,7.875 c0,4.349,3.526,7.875,7.875,7.875s7.875-3.526,7.875-7.875c0-12.284-9.424-22.409-21.422-23.523l-0.215-0.118H33.09 c-7.879,0-14.572-5.894-15.236-13.418c-0.373-4.223,0.982-8.253,3.815-11.347c2.374-2.592,5.478-4.194,8.885-4.653 c9.773,10.041,21.496,13.993,23.077,13.993l50.776-0.282c4.344-0.024,7.853-3.553,7.853-7.897c0-4.362-3.536-7.897-7.897-7.897 H84.699c0,0,10.669-9.069,15.65-14.204c0.058-0.06,0.102-0.118,0.154-0.177c3.411-3.353,5.916-7.625,7.081-12.428 c1.126-5.222,0.815-11.366-2.029-17.861c-3.296-6.559-9.274-11.534-16.498-13.485c-2.692-0.602-20.108-0.906-20.108-0.906 c-2.174,0-3.937-1.763-3.937-3.937s1.763-3.937,3.937-3.937h12.797v0.013c0.164-0.003-0.165-0.013,0-0.013 c15.591,0,29.246,10.566,33.219,24.91c0.011,0.033,0.027,0.071,0.038,0.104l14.715,53.337c0.707,2.561,3.037,4.335,5.694,4.335 h16.224c4.349,0,7.875-3.526,7.875-7.875c0-4.349-3.526-7.875-7.875-7.875h-7.875l-0.01-47.181 c19.904-9.941,31.51-25.347,31.51-55.193c0-12.157,0-23.625,0-23.625h24.609c3.622,0,7.599-2.353,8.515-5.867l1.309-6.29 C210.442,49.953,209.546,46.902,207.342,44.894z"/> </g>
</svg>